<mxfile host="app.diagrams.net" agent="Mozilla/5.0 (Macintosh; Intel Mac OS X 10_15_7) AppleWebKit/537.36 (KHTML, like Gecko) Chrome/128.0.0.0 Safari/537.36" version="24.7.12">
  <diagram name="Page-1" id="7mH3qzC32wGTJuEppnAf">
    <mxGraphModel dx="1293" dy="618" grid="1" gridSize="10" guides="1" tooltips="1" connect="1" arrows="1" fold="1" page="1" pageScale="1" pageWidth="827" pageHeight="1169" math="0" shadow="0">
      <root>
        <mxCell id="0" />
        <mxCell id="1" parent="0" />
        <mxCell id="80nJzv64MRplIhuClW2m-10" value="" style="rounded=1;whiteSpace=wrap;html=1;fillColor=none;" vertex="1" parent="1">
          <mxGeometry x="190" y="840" width="390" height="190" as="geometry" />
        </mxCell>
        <mxCell id="QmdGIUPNIh5QqYx42Nvl-5" value="&lt;b&gt;ap-south-1a&lt;/b&gt;" style="sketch=0;outlineConnect=0;gradientColor=none;html=1;whiteSpace=wrap;fontSize=12;fontStyle=0;shape=mxgraph.aws4.group;grIcon=mxgraph.aws4.group_subnet;strokeColor=#879196;fillColor=none;verticalAlign=top;align=left;spacingLeft=30;fontColor=#879196;dashed=0;" parent="1" vertex="1">
          <mxGeometry x="130" y="80" width="220" height="190" as="geometry" />
        </mxCell>
        <mxCell id="QmdGIUPNIh5QqYx42Nvl-6" value="&lt;b&gt;ap-south-1b&lt;/b&gt;" style="sketch=0;outlineConnect=0;gradientColor=none;html=1;whiteSpace=wrap;fontSize=12;fontStyle=0;shape=mxgraph.aws4.group;grIcon=mxgraph.aws4.group_subnet;strokeColor=#879196;fillColor=none;verticalAlign=top;align=left;spacingLeft=30;fontColor=#879196;dashed=0;" parent="1" vertex="1">
          <mxGeometry x="438.25" y="80" width="220" height="190" as="geometry" />
        </mxCell>
        <mxCell id="QmdGIUPNIh5QqYx42Nvl-1" value="&lt;b&gt;WebServer-1&lt;/b&gt;" style="outlineConnect=0;dashed=0;verticalLabelPosition=bottom;verticalAlign=top;align=center;html=1;shape=mxgraph.aws3.ec2;fillColor=#F58534;gradientColor=none;" parent="1" vertex="1">
          <mxGeometry x="190" y="128.5" width="76.5" height="93" as="geometry" />
        </mxCell>
        <mxCell id="QmdGIUPNIh5QqYx42Nvl-2" value="&lt;b&gt;WebServer-2&lt;/b&gt;" style="outlineConnect=0;dashed=0;verticalLabelPosition=bottom;verticalAlign=top;align=center;html=1;shape=mxgraph.aws3.ec2;fillColor=#F58534;gradientColor=none;" parent="1" vertex="1">
          <mxGeometry x="510" y="128.5" width="76.5" height="93" as="geometry" />
        </mxCell>
        <mxCell id="QmdGIUPNIh5QqYx42Nvl-10" style="edgeStyle=orthogonalEdgeStyle;rounded=0;orthogonalLoop=1;jettySize=auto;html=1;" parent="1" source="QmdGIUPNIh5QqYx42Nvl-7" target="QmdGIUPNIh5QqYx42Nvl-1" edge="1">
          <mxGeometry relative="1" as="geometry" />
        </mxCell>
        <mxCell id="QmdGIUPNIh5QqYx42Nvl-11" style="edgeStyle=orthogonalEdgeStyle;rounded=0;orthogonalLoop=1;jettySize=auto;html=1;" parent="1" source="QmdGIUPNIh5QqYx42Nvl-7" target="QmdGIUPNIh5QqYx42Nvl-2" edge="1">
          <mxGeometry relative="1" as="geometry" />
        </mxCell>
        <mxCell id="QmdGIUPNIh5QqYx42Nvl-7" value="&lt;b&gt;Load Bal&lt;/b&gt;&lt;b style=&quot;background-color: initial;&quot;&gt;ancer&lt;/b&gt;" style="outlineConnect=0;dashed=0;verticalLabelPosition=bottom;verticalAlign=top;align=center;html=1;shape=mxgraph.aws3.application_load_balancer;fillColor=#F58534;gradientColor=none;" parent="1" vertex="1">
          <mxGeometry x="350" y="320" width="90" height="92" as="geometry" />
        </mxCell>
        <mxCell id="QmdGIUPNIh5QqYx42Nvl-8" value="" style="outlineConnect=0;dashed=0;verticalLabelPosition=bottom;verticalAlign=top;align=center;html=1;shape=mxgraph.aws3.users;fillColor=#D2D3D3;gradientColor=none;" parent="1" vertex="1">
          <mxGeometry x="362" y="520" width="66" height="63" as="geometry" />
        </mxCell>
        <mxCell id="QmdGIUPNIh5QqYx42Nvl-9" style="edgeStyle=orthogonalEdgeStyle;rounded=0;orthogonalLoop=1;jettySize=auto;html=1;entryX=0.5;entryY=1;entryDx=0;entryDy=0;entryPerimeter=0;" parent="1" source="QmdGIUPNIh5QqYx42Nvl-8" target="QmdGIUPNIh5QqYx42Nvl-7" edge="1">
          <mxGeometry relative="1" as="geometry" />
        </mxCell>
        <mxCell id="QmdGIUPNIh5QqYx42Nvl-12" value="&lt;b&gt;&lt;font style=&quot;font-size: 24px;&quot;&gt;Target = ec2 instance&lt;/font&gt;&lt;/b&gt;&lt;div&gt;&lt;b&gt;&lt;font size=&quot;3&quot;&gt;&lt;br&gt;&lt;/font&gt;&lt;/b&gt;&lt;/div&gt;&lt;div&gt;&lt;b&gt;&lt;font size=&quot;3&quot;&gt;Target group = group of ec2 instances that runs on same port number&lt;/font&gt;&lt;/b&gt;&lt;/div&gt;&lt;div&gt;&lt;br&gt;&lt;/div&gt;" style="text;html=1;align=center;verticalAlign=middle;resizable=0;points=[];autosize=1;strokeColor=none;fillColor=none;" parent="1" vertex="1">
          <mxGeometry x="139" y="680" width="550" height="100" as="geometry" />
        </mxCell>
        <mxCell id="80nJzv64MRplIhuClW2m-3" value="&lt;b&gt;WebServer-1&lt;/b&gt;" style="outlineConnect=0;dashed=0;verticalLabelPosition=bottom;verticalAlign=top;align=center;html=1;shape=mxgraph.aws3.ec2;fillColor=#F58534;gradientColor=none;" vertex="1" parent="1">
          <mxGeometry x="270" y="868.5" width="76.5" height="93" as="geometry" />
        </mxCell>
        <mxCell id="80nJzv64MRplIhuClW2m-4" value="&lt;b&gt;WebServer-2&lt;/b&gt;" style="outlineConnect=0;dashed=0;verticalLabelPosition=bottom;verticalAlign=top;align=center;html=1;shape=mxgraph.aws3.ec2;fillColor=#F58534;gradientColor=none;" vertex="1" parent="1">
          <mxGeometry x="400" y="868.5" width="76.5" height="93" as="geometry" />
        </mxCell>
        <mxCell id="80nJzv64MRplIhuClW2m-18" style="edgeStyle=orthogonalEdgeStyle;rounded=0;orthogonalLoop=1;jettySize=auto;html=1;" edge="1" parent="1" source="80nJzv64MRplIhuClW2m-7">
          <mxGeometry relative="1" as="geometry">
            <mxPoint x="840" y="1040" as="targetPoint" />
            <Array as="points">
              <mxPoint x="594" y="1120" />
              <mxPoint x="841" y="1120" />
              <mxPoint x="841" y="1040" />
            </Array>
          </mxGeometry>
        </mxCell>
        <mxCell id="80nJzv64MRplIhuClW2m-22" style="edgeStyle=orthogonalEdgeStyle;rounded=0;orthogonalLoop=1;jettySize=auto;html=1;" edge="1" parent="1" source="80nJzv64MRplIhuClW2m-7">
          <mxGeometry relative="1" as="geometry">
            <mxPoint x="1210" y="1040" as="targetPoint" />
          </mxGeometry>
        </mxCell>
        <mxCell id="80nJzv64MRplIhuClW2m-7" value="&lt;b&gt;Load Bal&lt;/b&gt;&lt;b style=&quot;background-color: initial;&quot;&gt;ancer&lt;/b&gt;" style="outlineConnect=0;dashed=0;verticalLabelPosition=bottom;verticalAlign=top;align=center;html=1;shape=mxgraph.aws3.application_load_balancer;fillColor=#F58534;gradientColor=none;" vertex="1" parent="1">
          <mxGeometry x="549" y="1150" width="90" height="92" as="geometry" />
        </mxCell>
        <mxCell id="80nJzv64MRplIhuClW2m-8" value="" style="outlineConnect=0;dashed=0;verticalLabelPosition=bottom;verticalAlign=top;align=center;html=1;shape=mxgraph.aws3.users;fillColor=#D2D3D3;gradientColor=none;" vertex="1" parent="1">
          <mxGeometry x="561" y="1300" width="66" height="63" as="geometry" />
        </mxCell>
        <mxCell id="80nJzv64MRplIhuClW2m-9" style="edgeStyle=orthogonalEdgeStyle;rounded=0;orthogonalLoop=1;jettySize=auto;html=1;entryX=0.5;entryY=1;entryDx=0;entryDy=0;entryPerimeter=0;" edge="1" parent="1" source="80nJzv64MRplIhuClW2m-8" target="80nJzv64MRplIhuClW2m-7">
          <mxGeometry relative="1" as="geometry" />
        </mxCell>
        <mxCell id="80nJzv64MRplIhuClW2m-11" value="&lt;b&gt;&lt;font style=&quot;font-size: 14px;&quot;&gt;Target Group&lt;/font&gt;&lt;/b&gt;&lt;div&gt;&lt;b&gt;&lt;font size=&quot;3&quot;&gt;Port : 80&lt;/font&gt;&lt;/b&gt;&lt;/div&gt;" style="text;html=1;align=center;verticalAlign=middle;resizable=0;points=[];autosize=1;strokeColor=none;fillColor=none;" vertex="1" parent="1">
          <mxGeometry x="280" y="1030" width="110" height="50" as="geometry" />
        </mxCell>
        <mxCell id="80nJzv64MRplIhuClW2m-12" style="edgeStyle=orthogonalEdgeStyle;rounded=0;orthogonalLoop=1;jettySize=auto;html=1;entryX=0.538;entryY=1.021;entryDx=0;entryDy=0;entryPerimeter=0;" edge="1" parent="1" source="80nJzv64MRplIhuClW2m-7" target="80nJzv64MRplIhuClW2m-10">
          <mxGeometry relative="1" as="geometry">
            <Array as="points">
              <mxPoint x="400" y="1180" />
            </Array>
          </mxGeometry>
        </mxCell>
        <mxCell id="80nJzv64MRplIhuClW2m-13" value="&lt;b&gt;&lt;font style=&quot;font-size: 14px;&quot;&gt;elb:80&lt;/font&gt;&lt;/b&gt;" style="text;html=1;align=center;verticalAlign=middle;resizable=0;points=[];autosize=1;strokeColor=none;fillColor=none;" vertex="1" parent="1">
          <mxGeometry x="446.5" y="1198" width="60" height="30" as="geometry" />
        </mxCell>
        <mxCell id="80nJzv64MRplIhuClW2m-15" value="" style="rounded=1;whiteSpace=wrap;html=1;fillColor=none;" vertex="1" parent="1">
          <mxGeometry x="670" y="840" width="280" height="190" as="geometry" />
        </mxCell>
        <mxCell id="80nJzv64MRplIhuClW2m-16" value="&lt;b&gt;&lt;font style=&quot;font-size: 14px;&quot;&gt;Target Group&lt;/font&gt;&lt;/b&gt;&lt;div&gt;&lt;b&gt;&lt;font size=&quot;3&quot;&gt;Port : 8080&lt;/font&gt;&lt;/b&gt;&lt;/div&gt;" style="text;html=1;align=center;verticalAlign=middle;resizable=0;points=[];autosize=1;strokeColor=none;fillColor=none;" vertex="1" parent="1">
          <mxGeometry x="869" y="1030" width="110" height="50" as="geometry" />
        </mxCell>
        <mxCell id="80nJzv64MRplIhuClW2m-17" value="&lt;b&gt;Web Server 8080&lt;/b&gt;" style="outlineConnect=0;dashed=0;verticalLabelPosition=bottom;verticalAlign=top;align=center;html=1;shape=mxgraph.aws3.ec2;fillColor=#F58534;gradientColor=none;" vertex="1" parent="1">
          <mxGeometry x="761.75" y="880" width="76.5" height="93" as="geometry" />
        </mxCell>
        <mxCell id="80nJzv64MRplIhuClW2m-19" value="&lt;b&gt;&lt;font style=&quot;font-size: 14px;&quot;&gt;elb:8080&lt;/font&gt;&lt;/b&gt;" style="text;html=1;align=center;verticalAlign=middle;resizable=0;points=[];autosize=1;strokeColor=none;fillColor=none;" vertex="1" parent="1">
          <mxGeometry x="689" y="1130" width="80" height="30" as="geometry" />
        </mxCell>
        <mxCell id="80nJzv64MRplIhuClW2m-20" value="" style="rounded=1;whiteSpace=wrap;html=1;fillColor=none;" vertex="1" parent="1">
          <mxGeometry x="1050" y="840" width="280" height="190" as="geometry" />
        </mxCell>
        <mxCell id="80nJzv64MRplIhuClW2m-21" value="&lt;b&gt;Web Server 8888&lt;/b&gt;" style="outlineConnect=0;dashed=0;verticalLabelPosition=bottom;verticalAlign=top;align=center;html=1;shape=mxgraph.aws3.ec2;fillColor=#F58534;gradientColor=none;" vertex="1" parent="1">
          <mxGeometry x="1130" y="868.5" width="76.5" height="93" as="geometry" />
        </mxCell>
        <mxCell id="80nJzv64MRplIhuClW2m-23" value="&lt;b&gt;&lt;font style=&quot;font-size: 14px;&quot;&gt;elb:8888&lt;/font&gt;&lt;/b&gt;" style="text;html=1;align=center;verticalAlign=middle;resizable=0;points=[];autosize=1;strokeColor=none;fillColor=none;" vertex="1" parent="1">
          <mxGeometry x="920" y="1212" width="80" height="30" as="geometry" />
        </mxCell>
      </root>
    </mxGraphModel>
  </diagram>
</mxfile>
